<mxfile host="app.diagrams.net" agent="Mozilla/5.0 (Windows NT 10.0; Win64; x64) AppleWebKit/537.36 (KHTML, like Gecko) Chrome/129.0.0.0 Safari/537.36 Edg/129.0.0.0" version="24.7.17">
  <diagram id="prtHgNgQTEPvFCAcTncT" name="Page-1">
    <mxGraphModel dx="786" dy="673" grid="1" gridSize="10" guides="1" tooltips="1" connect="1" arrows="1" fold="1" page="1" pageScale="1" pageWidth="827" pageHeight="1169" math="0" shadow="0">
      <root>
        <mxCell id="0" />
        <mxCell id="1" parent="0" />
        <mxCell id="2WOh0KWyZ4aEVbhR7mJW-26" style="edgeStyle=orthogonalEdgeStyle;rounded=0;orthogonalLoop=1;jettySize=auto;html=1;entryX=0.5;entryY=0;entryDx=0;entryDy=0;" parent="1" source="2WOh0KWyZ4aEVbhR7mJW-3" target="2WOh0KWyZ4aEVbhR7mJW-4" edge="1">
          <mxGeometry relative="1" as="geometry" />
        </mxCell>
        <mxCell id="2WOh0KWyZ4aEVbhR7mJW-3" value="Начало" style="strokeWidth=2;html=1;shape=mxgraph.flowchart.terminator;whiteSpace=wrap;" parent="1" vertex="1">
          <mxGeometry x="364" y="40" width="100" height="60" as="geometry" />
        </mxCell>
        <mxCell id="2WOh0KWyZ4aEVbhR7mJW-29" style="edgeStyle=orthogonalEdgeStyle;rounded=0;orthogonalLoop=1;jettySize=auto;html=1;" parent="1" source="2WOh0KWyZ4aEVbhR7mJW-4" target="2WOh0KWyZ4aEVbhR7mJW-8" edge="1">
          <mxGeometry relative="1" as="geometry" />
        </mxCell>
        <mxCell id="2WOh0KWyZ4aEVbhR7mJW-4" value="" style="verticalLabelPosition=bottom;verticalAlign=top;html=1;shape=process;whiteSpace=wrap;rounded=1;size=0.14;arcSize=6;" parent="1" vertex="1">
          <mxGeometry x="364" y="160" width="100" height="60" as="geometry" />
        </mxCell>
        <mxCell id="2WOh0KWyZ4aEVbhR7mJW-5" value="Заявка&lt;br&gt;на ремонт" style="text;html=1;align=center;verticalAlign=middle;resizable=0;points=[];autosize=1;strokeColor=none;fillColor=none;" parent="1" vertex="1">
          <mxGeometry x="374" y="170" width="80" height="40" as="geometry" />
        </mxCell>
        <mxCell id="2WOh0KWyZ4aEVbhR7mJW-27" style="edgeStyle=orthogonalEdgeStyle;rounded=0;orthogonalLoop=1;jettySize=auto;html=1;entryX=1;entryY=0.5;entryDx=0;entryDy=0;" parent="1" source="2WOh0KWyZ4aEVbhR7mJW-6" target="2WOh0KWyZ4aEVbhR7mJW-4" edge="1">
          <mxGeometry relative="1" as="geometry" />
        </mxCell>
        <mxCell id="2WOh0KWyZ4aEVbhR7mJW-6" value="Данные о заявке" style="html=1;strokeWidth=2;shape=manualInput;whiteSpace=wrap;rounded=1;size=26;arcSize=11;" parent="1" vertex="1">
          <mxGeometry x="540" y="160" width="100" height="60" as="geometry" />
        </mxCell>
        <mxCell id="2WOh0KWyZ4aEVbhR7mJW-7" value="" style="verticalLabelPosition=bottom;verticalAlign=top;html=1;shape=process;whiteSpace=wrap;rounded=1;size=0.14;arcSize=6;" parent="1" vertex="1">
          <mxGeometry x="364" y="282" width="100" height="60" as="geometry" />
        </mxCell>
        <mxCell id="2WOh0KWyZ4aEVbhR7mJW-30" style="edgeStyle=orthogonalEdgeStyle;rounded=0;orthogonalLoop=1;jettySize=auto;html=1;entryX=0.5;entryY=0;entryDx=0;entryDy=0;" parent="1" source="2WOh0KWyZ4aEVbhR7mJW-8" target="2WOh0KWyZ4aEVbhR7mJW-10" edge="1">
          <mxGeometry relative="1" as="geometry" />
        </mxCell>
        <mxCell id="cXvkicV05TxUOs8z8IaQ-3" value="" style="edgeStyle=orthogonalEdgeStyle;rounded=0;orthogonalLoop=1;jettySize=auto;html=1;" edge="1" parent="1" source="2WOh0KWyZ4aEVbhR7mJW-8" target="2WOh0KWyZ4aEVbhR7mJW-9">
          <mxGeometry relative="1" as="geometry" />
        </mxCell>
        <mxCell id="2WOh0KWyZ4aEVbhR7mJW-8" value="Запись&lt;br&gt;заявки&lt;br&gt;в хранилище" style="text;html=1;align=center;verticalAlign=middle;resizable=0;points=[];autosize=1;strokeColor=none;fillColor=none;" parent="1" vertex="1">
          <mxGeometry x="364" y="282" width="100" height="60" as="geometry" />
        </mxCell>
        <mxCell id="2WOh0KWyZ4aEVbhR7mJW-9" value="&lt;br&gt;Данные о заявке" style="strokeWidth=2;html=1;shape=mxgraph.flowchart.database;whiteSpace=wrap;" parent="1" vertex="1">
          <mxGeometry x="560" y="282" width="60" height="60" as="geometry" />
        </mxCell>
        <mxCell id="2WOh0KWyZ4aEVbhR7mJW-31" style="edgeStyle=orthogonalEdgeStyle;rounded=0;orthogonalLoop=1;jettySize=auto;html=1;" parent="1" source="2WOh0KWyZ4aEVbhR7mJW-10" target="2WOh0KWyZ4aEVbhR7mJW-12" edge="1">
          <mxGeometry relative="1" as="geometry" />
        </mxCell>
        <mxCell id="2WOh0KWyZ4aEVbhR7mJW-10" value="" style="verticalLabelPosition=bottom;verticalAlign=top;html=1;shape=process;whiteSpace=wrap;rounded=1;size=0.14;arcSize=6;" parent="1" vertex="1">
          <mxGeometry x="364" y="400" width="100" height="60" as="geometry" />
        </mxCell>
        <mxCell id="2WOh0KWyZ4aEVbhR7mJW-11" value="Обработка&lt;br&gt;завяки" style="text;html=1;align=center;verticalAlign=middle;resizable=0;points=[];autosize=1;strokeColor=none;fillColor=none;" parent="1" vertex="1">
          <mxGeometry x="374" y="410" width="80" height="40" as="geometry" />
        </mxCell>
        <mxCell id="2WOh0KWyZ4aEVbhR7mJW-33" style="edgeStyle=orthogonalEdgeStyle;rounded=0;orthogonalLoop=1;jettySize=auto;html=1;entryX=0.5;entryY=0;entryDx=0;entryDy=0;" parent="1" source="2WOh0KWyZ4aEVbhR7mJW-12" target="2WOh0KWyZ4aEVbhR7mJW-15" edge="1">
          <mxGeometry relative="1" as="geometry" />
        </mxCell>
        <mxCell id="2WOh0KWyZ4aEVbhR7mJW-12" value="Нехватка входных &lt;br&gt;данных" style="rhombus;whiteSpace=wrap;html=1;" parent="1" vertex="1">
          <mxGeometry x="336" y="500" width="156" height="80" as="geometry" />
        </mxCell>
        <mxCell id="2WOh0KWyZ4aEVbhR7mJW-37" style="edgeStyle=orthogonalEdgeStyle;rounded=0;orthogonalLoop=1;jettySize=auto;html=1;entryX=1;entryY=0.5;entryDx=0;entryDy=0;" parent="1" source="2WOh0KWyZ4aEVbhR7mJW-13" target="2WOh0KWyZ4aEVbhR7mJW-15" edge="1">
          <mxGeometry relative="1" as="geometry">
            <Array as="points">
              <mxPoint x="620" y="660" />
            </Array>
          </mxGeometry>
        </mxCell>
        <mxCell id="2WOh0KWyZ4aEVbhR7mJW-13" value="" style="verticalLabelPosition=bottom;verticalAlign=top;html=1;shape=process;whiteSpace=wrap;rounded=1;size=0.14;arcSize=6;" parent="1" vertex="1">
          <mxGeometry x="570" y="510" width="100" height="60" as="geometry" />
        </mxCell>
        <mxCell id="2WOh0KWyZ4aEVbhR7mJW-14" value="Запрос доп.&lt;br&gt;информации" style="text;html=1;align=center;verticalAlign=middle;resizable=0;points=[];autosize=1;strokeColor=none;fillColor=none;" parent="1" vertex="1">
          <mxGeometry x="570" y="520" width="100" height="40" as="geometry" />
        </mxCell>
        <mxCell id="2WOh0KWyZ4aEVbhR7mJW-38" style="edgeStyle=orthogonalEdgeStyle;rounded=0;orthogonalLoop=1;jettySize=auto;html=1;entryX=0.5;entryY=0;entryDx=0;entryDy=0;" parent="1" source="2WOh0KWyZ4aEVbhR7mJW-15" target="2WOh0KWyZ4aEVbhR7mJW-17" edge="1">
          <mxGeometry relative="1" as="geometry" />
        </mxCell>
        <mxCell id="2WOh0KWyZ4aEVbhR7mJW-15" value="" style="verticalLabelPosition=bottom;verticalAlign=top;html=1;shape=process;whiteSpace=wrap;rounded=1;size=0.14;arcSize=6;" parent="1" vertex="1">
          <mxGeometry x="364" y="630" width="100" height="60" as="geometry" />
        </mxCell>
        <mxCell id="2WOh0KWyZ4aEVbhR7mJW-16" value="Исполнение&lt;br&gt;заявки" style="text;html=1;align=center;verticalAlign=middle;resizable=0;points=[];autosize=1;strokeColor=none;fillColor=none;" parent="1" vertex="1">
          <mxGeometry x="369" y="640" width="90" height="40" as="geometry" />
        </mxCell>
        <mxCell id="2WOh0KWyZ4aEVbhR7mJW-39" style="edgeStyle=orthogonalEdgeStyle;rounded=0;orthogonalLoop=1;jettySize=auto;html=1;" parent="1" source="2WOh0KWyZ4aEVbhR7mJW-17" target="2WOh0KWyZ4aEVbhR7mJW-21" edge="1">
          <mxGeometry relative="1" as="geometry" />
        </mxCell>
        <mxCell id="2WOh0KWyZ4aEVbhR7mJW-40" style="edgeStyle=orthogonalEdgeStyle;rounded=0;orthogonalLoop=1;jettySize=auto;html=1;entryX=0.5;entryY=0;entryDx=0;entryDy=0;" parent="1" source="2WOh0KWyZ4aEVbhR7mJW-17" target="2WOh0KWyZ4aEVbhR7mJW-22" edge="1">
          <mxGeometry relative="1" as="geometry" />
        </mxCell>
        <mxCell id="2WOh0KWyZ4aEVbhR7mJW-17" value="" style="verticalLabelPosition=bottom;verticalAlign=top;html=1;shape=process;whiteSpace=wrap;rounded=1;size=0.14;arcSize=6;" parent="1" vertex="1">
          <mxGeometry x="346" y="770" width="136" height="60" as="geometry" />
        </mxCell>
        <mxCell id="2WOh0KWyZ4aEVbhR7mJW-19" value="Предоставление&lt;br&gt;информации" style="text;html=1;align=center;verticalAlign=middle;resizable=0;points=[];autosize=1;strokeColor=none;fillColor=none;" parent="1" vertex="1">
          <mxGeometry x="354" y="780" width="120" height="40" as="geometry" />
        </mxCell>
        <mxCell id="2WOh0KWyZ4aEVbhR7mJW-21" value="Отчет" style="strokeWidth=2;html=1;shape=mxgraph.flowchart.document2;whiteSpace=wrap;size=0.25;" parent="1" vertex="1">
          <mxGeometry x="570" y="770" width="100" height="60" as="geometry" />
        </mxCell>
        <mxCell id="2WOh0KWyZ4aEVbhR7mJW-43" value="" style="edgeStyle=orthogonalEdgeStyle;rounded=0;orthogonalLoop=1;jettySize=auto;html=1;" parent="1" source="2WOh0KWyZ4aEVbhR7mJW-22" target="2WOh0KWyZ4aEVbhR7mJW-25" edge="1">
          <mxGeometry relative="1" as="geometry">
            <Array as="points">
              <mxPoint x="414" y="1020" />
              <mxPoint x="414" y="1020" />
            </Array>
          </mxGeometry>
        </mxCell>
        <mxCell id="2WOh0KWyZ4aEVbhR7mJW-22" value="" style="verticalLabelPosition=bottom;verticalAlign=top;html=1;shape=process;whiteSpace=wrap;rounded=1;size=0.14;arcSize=6;" parent="1" vertex="1">
          <mxGeometry x="346" y="920" width="136" height="60" as="geometry" />
        </mxCell>
        <mxCell id="2WOh0KWyZ4aEVbhR7mJW-23" value="Визуализация&lt;br&gt;и обработка" style="text;html=1;align=center;verticalAlign=middle;resizable=0;points=[];autosize=1;strokeColor=none;fillColor=none;" parent="1" vertex="1">
          <mxGeometry x="364" y="930" width="100" height="40" as="geometry" />
        </mxCell>
        <mxCell id="2WOh0KWyZ4aEVbhR7mJW-24" value="Анализ" style="strokeWidth=2;html=1;shape=mxgraph.flowchart.document2;whiteSpace=wrap;size=0.25;" parent="1" vertex="1">
          <mxGeometry x="570" y="920" width="100" height="60" as="geometry" />
        </mxCell>
        <mxCell id="2WOh0KWyZ4aEVbhR7mJW-25" value="Конец" style="strokeWidth=2;html=1;shape=mxgraph.flowchart.terminator;whiteSpace=wrap;" parent="1" vertex="1">
          <mxGeometry x="364" y="1050" width="100" height="60" as="geometry" />
        </mxCell>
        <mxCell id="2WOh0KWyZ4aEVbhR7mJW-32" style="edgeStyle=orthogonalEdgeStyle;rounded=0;orthogonalLoop=1;jettySize=auto;html=1;entryX=-0.022;entryY=0.519;entryDx=0;entryDy=0;entryPerimeter=0;" parent="1" source="2WOh0KWyZ4aEVbhR7mJW-12" target="2WOh0KWyZ4aEVbhR7mJW-14" edge="1">
          <mxGeometry relative="1" as="geometry" />
        </mxCell>
        <mxCell id="2WOh0KWyZ4aEVbhR7mJW-42" style="edgeStyle=orthogonalEdgeStyle;rounded=0;orthogonalLoop=1;jettySize=auto;html=1;entryX=0;entryY=0.5;entryDx=0;entryDy=0;entryPerimeter=0;" parent="1" source="2WOh0KWyZ4aEVbhR7mJW-22" target="2WOh0KWyZ4aEVbhR7mJW-24" edge="1">
          <mxGeometry relative="1" as="geometry" />
        </mxCell>
        <mxCell id="cXvkicV05TxUOs8z8IaQ-1" value="Да" style="text;html=1;align=center;verticalAlign=middle;resizable=0;points=[];autosize=1;strokeColor=none;fillColor=none;" vertex="1" parent="1">
          <mxGeometry x="500" y="500" width="40" height="30" as="geometry" />
        </mxCell>
        <mxCell id="cXvkicV05TxUOs8z8IaQ-2" value="Нет" style="text;html=1;align=center;verticalAlign=middle;resizable=0;points=[];autosize=1;strokeColor=none;fillColor=none;" vertex="1" parent="1">
          <mxGeometry x="434" y="585" width="40" height="30" as="geometry" />
        </mxCell>
      </root>
    </mxGraphModel>
  </diagram>
</mxfile>
